<svg width="800" height="800" viewBox="0 0 800 800" fill="none" xmlns="http://www.w3.org/2000/svg">
  <rect width="800" height="800" fill="#1A1A1A"/>
  <path d="M400 150C400 150 350 200 330 280C310 360 320 440 330 480C340 520 370 580 400 600C430 580 460 520 470 480C480 440 490 360 470 280C450 200 400 150 400 150Z" stroke="#FF81CA" stroke-width="3" stroke-linecap="round"/>
  <path d="M330 280C330 280 360 290 400 290C440 290 470 280 470 280" stroke="#FF81CA" stroke-width="3" stroke-linecap="round"/>
  <path d="M320 350C320 350 350 370 400 370C450 370 480 350 480 350" stroke="#FF81CA" stroke-width="3" stroke-linecap="round"/>
  <path d="M330 430C330 430 360 450 400 450C440 450 470 430 470 430" stroke="#FF81CA" stroke-width="3" stroke-linecap="round"/>
  <path d="M350 520C350 520 370 540 400 540C430 540 450 520 450 520" stroke="#FF81CA" stroke-width="3" stroke-linecap="round"/>
  <circle cx="370" cy="230" r="10" fill="#FF81CA"/>
  <circle cx="430" cy="230" r="10" fill="#FF81CA"/>
  <path d="M250 300C250 300 280 250 300 230" stroke="#FF81CA" stroke-width="3" stroke-linecap="round"/>
  <path d="M550 300C550 300 520 250 500 230" stroke="#FF81CA" stroke-width="3" stroke-linecap="round"/>
  <path d="M230 350C230 350 260 330 290 320" stroke="#FF81CA" stroke-width="3" stroke-linecap="round"/>
  <path d="M570 350C570 350 540 330 510 320" stroke="#FF81CA" stroke-width="3" stroke-linecap="round"/>
</svg> 